<svg id="visual" viewBox="0 0 900 450" width="900" height="450" xmlns="http://www.w3.org/2000/svg" xmlns:xlink="http://www.w3.org/1999/xlink" version="1.1"><rect x="0" y="0" width="900" height="450" fill="#3e619b"></rect><path d="M0 361L129 359L257 352L386 361L514 352L643 348L771 343L900 340L900 451L771 451L643 451L514 451L386 451L257 451L129 451L0 451Z" fill="#ef4b4c"></path><path d="M0 393L129 364L257 378L386 383L514 368L643 385L771 386L900 382L900 451L771 451L643 451L514 451L386 451L257 451L129 451L0 451Z" fill="#db437b"></path><path d="M0 385L129 390L257 401L386 391L514 406L643 399L771 394L900 400L900 451L771 451L643 451L514 451L386 451L257 451L129 451L0 451Z" fill="#b0509b"></path><path d="M0 416L129 412L257 416L386 422L514 417L643 404L771 412L900 413L900 451L771 451L643 451L514 451L386 451L257 451L129 451L0 451Z" fill="#785da6"></path><path d="M0 432L129 427L257 434L386 433L514 430L643 425L771 433L900 417L900 451L771 451L643 451L514 451L386 451L257 451L129 451L0 451Z" fill="#3e619b"></path></svg>