<svg id="visual" viewBox="0 0 900 450" width="900" height="450" xmlns="http://www.w3.org/2000/svg" xmlns:xlink="http://www.w3.org/1999/xlink" version="1.1"><rect x="0" y="0" width="900" height="450" fill="#1c5998"></rect><path d="M0 338L13.7 342.7C27.3 347.3 54.7 356.7 82 360.3C109.3 364 136.7 362 163.8 363.7C191 365.3 218 370.7 245.2 370.7C272.3 370.7 299.7 365.3 327 347C354.3 328.7 381.7 297.3 409 299.3C436.3 301.3 463.7 336.7 491 343.3C518.3 350 545.7 328 573 316.8C600.3 305.7 627.7 305.3 654.8 302C682 298.7 709 292.3 736.2 299C763.3 305.7 790.7 325.3 818 335.8C845.3 346.3 872.7 347.7 886.3 348.3L900 349L900 451L886.3 451C872.7 451 845.3 451 818 451C790.7 451 763.3 451 736.2 451C709 451 682 451 654.8 451C627.7 451 600.3 451 573 451C545.7 451 518.3 451 491 451C463.7 451 436.3 451 409 451C381.7 451 354.3 451 327 451C299.7 451 272.3 451 245.2 451C218 451 191 451 163.8 451C136.7 451 109.3 451 82 451C54.7 451 27.3 451 13.7 451L0 451Z" fill="#fe9870" stroke-linecap="round" stroke-linejoin="miter"></path></svg>